<mxfile host="65bd71144e">
    <diagram id="c0icn-cArIapTxVZHmri" name="페이지-1">
        <mxGraphModel dx="1126" dy="545" grid="1" gridSize="10" guides="1" tooltips="1" connect="1" arrows="1" fold="1" page="1" pageScale="1" pageWidth="827" pageHeight="1169" math="0" shadow="0">
            <root>
                <mxCell id="0"/>
                <mxCell id="1" parent="0"/>
                <mxCell id="2" value="kr 데이터 등록" style="swimlane;html=1;childLayout=stackLayout;resizeParent=1;resizeParentMax=0;horizontal=0;startSize=20;horizontalStack=0;" parent="1" vertex="1">
                    <mxGeometry x="60" y="120" width="1090" height="1080" as="geometry"/>
                </mxCell>
                <mxCell id="22" value="crawling" style="swimlane;html=1;startSize=20;horizontal=0;" parent="2" vertex="1">
                    <mxGeometry x="20" width="1070" height="120" as="geometry"/>
                </mxCell>
                <mxCell id="127" style="edgeStyle=none;html=1;" parent="22" source="25" target="114" edge="1">
                    <mxGeometry relative="1" as="geometry"/>
                </mxCell>
                <mxCell id="25" value="crawling kr" style="rounded=0;whiteSpace=wrap;html=1;fontFamily=Helvetica;fontSize=12;align=center;" parent="22" vertex="1">
                    <mxGeometry x="120" y="30" width="80" height="60" as="geometry"/>
                </mxCell>
                <mxCell id="114" value="crawling us" style="rounded=0;whiteSpace=wrap;html=1;fontFamily=Helvetica;fontSize=12;align=center;" parent="22" vertex="1">
                    <mxGeometry x="810" y="30" width="80" height="60" as="geometry"/>
                </mxCell>
                <mxCell id="14" value="info (crawling)" style="swimlane;html=1;startSize=20;horizontal=0;" parent="2" vertex="1">
                    <mxGeometry x="20" y="120" width="1070" height="120" as="geometry"/>
                </mxCell>
                <mxCell id="16" value="seoul&lt;br&gt;code" style="rounded=0;whiteSpace=wrap;html=1;fontFamily=Helvetica;fontSize=12;align=center;" parent="14" vertex="1">
                    <mxGeometry x="120" y="30" width="80" height="60" as="geometry"/>
                </mxCell>
                <mxCell id="27" value="kosdaq&lt;br&gt;code" style="rounded=0;whiteSpace=wrap;html=1;fontFamily=Helvetica;fontSize=12;align=center;" parent="14" vertex="1">
                    <mxGeometry x="240" y="30" width="80" height="60" as="geometry"/>
                </mxCell>
                <mxCell id="115" value="nasdaq&lt;br&gt;code" style="rounded=0;whiteSpace=wrap;html=1;fontFamily=Helvetica;fontSize=12;align=center;" parent="14" vertex="1">
                    <mxGeometry x="810" y="30" width="80" height="60" as="geometry"/>
                </mxCell>
                <mxCell id="18" value="code" style="swimlane;html=1;startSize=20;horizontal=0;" parent="2" vertex="1">
                    <mxGeometry x="20" y="240" width="1070" height="120" as="geometry"/>
                </mxCell>
                <mxCell id="20" value="kosdaq&lt;br&gt;filter" style="rounded=0;whiteSpace=wrap;html=1;fontFamily=Helvetica;fontSize=12;align=center;" parent="18" vertex="1">
                    <mxGeometry x="460" y="30" width="80" height="60" as="geometry"/>
                </mxCell>
                <mxCell id="29" value="seoul&lt;br&gt;filter" style="rounded=0;whiteSpace=wrap;html=1;fontFamily=Helvetica;fontSize=12;align=center;" parent="18" vertex="1">
                    <mxGeometry x="120" y="30" width="80" height="60" as="geometry"/>
                </mxCell>
                <mxCell id="44" value="new&lt;br&gt;seoul" style="rounded=0;whiteSpace=wrap;html=1;fontFamily=Helvetica;fontSize=12;align=center;" parent="18" vertex="1">
                    <mxGeometry x="240" y="30" width="80" height="60" as="geometry"/>
                </mxCell>
                <mxCell id="45" style="edgeStyle=none;html=1;" parent="18" source="29" target="44" edge="1">
                    <mxGeometry relative="1" as="geometry"/>
                </mxCell>
                <mxCell id="48" value="new&lt;br&gt;kosdaq" style="rounded=0;whiteSpace=wrap;html=1;fontFamily=Helvetica;fontSize=12;align=center;" parent="18" vertex="1">
                    <mxGeometry x="580" y="30" width="80" height="60" as="geometry"/>
                </mxCell>
                <mxCell id="50" style="edgeStyle=none;html=1;" parent="18" source="20" target="48" edge="1">
                    <mxGeometry relative="1" as="geometry"/>
                </mxCell>
                <mxCell id="24" value="" style="ellipse;whiteSpace=wrap;html=1;" parent="18" vertex="1">
                    <mxGeometry x="50" y="40" width="40" height="40" as="geometry"/>
                </mxCell>
                <mxCell id="121" style="edgeStyle=none;html=1;" parent="18" source="117" target="119" edge="1">
                    <mxGeometry relative="1" as="geometry"/>
                </mxCell>
                <mxCell id="117" value="nasdaq&lt;br&gt;filter" style="rounded=0;whiteSpace=wrap;html=1;fontFamily=Helvetica;fontSize=12;align=center;" parent="18" vertex="1">
                    <mxGeometry x="810" y="30" width="80" height="60" as="geometry"/>
                </mxCell>
                <mxCell id="119" value="new&lt;br&gt;nasdaq" style="rounded=0;whiteSpace=wrap;html=1;fontFamily=Helvetica;fontSize=12;align=center;" parent="18" vertex="1">
                    <mxGeometry x="930" y="30" width="80" height="60" as="geometry"/>
                </mxCell>
                <mxCell id="49" style="edgeStyle=none;html=1;" parent="2" source="37" target="48" edge="1">
                    <mxGeometry relative="1" as="geometry"/>
                </mxCell>
                <mxCell id="83" style="edgeStyle=none;html=1;" parent="2" source="48" target="82" edge="1">
                    <mxGeometry relative="1" as="geometry"/>
                </mxCell>
                <mxCell id="85" style="edgeStyle=none;html=1;" parent="2" source="48" target="42" edge="1">
                    <mxGeometry relative="1" as="geometry">
                        <Array as="points">
                            <mxPoint x="710" y="300"/>
                            <mxPoint x="710" y="540"/>
                        </Array>
                    </mxGeometry>
                </mxCell>
                <mxCell id="110" style="edgeStyle=none;html=1;" parent="2" source="96" target="100" edge="1">
                    <mxGeometry relative="1" as="geometry"/>
                </mxCell>
                <mxCell id="111" style="edgeStyle=none;html=1;" parent="2" source="100" target="105" edge="1">
                    <mxGeometry relative="1" as="geometry"/>
                </mxCell>
                <mxCell id="166" style="edgeStyle=none;html=1;" parent="2" source="48" target="165" edge="1">
                    <mxGeometry relative="1" as="geometry"/>
                </mxCell>
                <mxCell id="35" value="live" style="swimlane;html=1;startSize=20;horizontal=0;" parent="2" vertex="1">
                    <mxGeometry x="20" y="360" width="1070" height="120" as="geometry"/>
                </mxCell>
                <mxCell id="37" value="kosdaq&lt;br&gt;live" style="rounded=0;whiteSpace=wrap;html=1;fontFamily=Helvetica;fontSize=12;align=center;" parent="35" vertex="1">
                    <mxGeometry x="460" y="30" width="80" height="60" as="geometry"/>
                </mxCell>
                <mxCell id="39" value="seoul&lt;br&gt;live" style="rounded=0;whiteSpace=wrap;html=1;fontFamily=Helvetica;fontSize=12;align=center;" parent="35" vertex="1">
                    <mxGeometry x="120" y="30" width="80" height="60" as="geometry"/>
                </mxCell>
                <mxCell id="79" value="update" style="rounded=0;whiteSpace=wrap;html=1;fontFamily=Helvetica;fontSize=12;align=center;" parent="35" vertex="1">
                    <mxGeometry x="240" y="30" width="80" height="60" as="geometry"/>
                </mxCell>
                <mxCell id="82" value="update" style="rounded=0;whiteSpace=wrap;html=1;fontFamily=Helvetica;fontSize=12;align=center;" parent="35" vertex="1">
                    <mxGeometry x="580" y="30" width="80" height="60" as="geometry"/>
                </mxCell>
                <mxCell id="120" value="nasdaq&lt;br&gt;live" style="rounded=0;whiteSpace=wrap;html=1;fontFamily=Helvetica;fontSize=12;align=center;" parent="35" vertex="1">
                    <mxGeometry x="810" y="30" width="80" height="60" as="geometry"/>
                </mxCell>
                <mxCell id="123" value="update" style="rounded=0;whiteSpace=wrap;html=1;fontFamily=Helvetica;fontSize=12;align=center;" parent="35" vertex="1">
                    <mxGeometry x="930" y="30" width="80" height="60" as="geometry"/>
                </mxCell>
                <mxCell id="185" value="라이브 데이터는 supabase 가 좋을듯" style="text;html=1;strokeColor=none;fillColor=none;align=center;verticalAlign=middle;whiteSpace=wrap;rounded=0;" vertex="1" parent="35">
                    <mxGeometry x="40" y="30" width="60" height="70" as="geometry"/>
                </mxCell>
                <mxCell id="30" value="" style="edgeStyle=none;html=1;" parent="2" source="25" target="16" edge="1">
                    <mxGeometry relative="1" as="geometry"/>
                </mxCell>
                <mxCell id="31" style="edgeStyle=none;html=1;" parent="2" source="25" target="27" edge="1">
                    <mxGeometry relative="1" as="geometry"/>
                </mxCell>
                <mxCell id="32" value="" style="edgeStyle=none;html=1;" parent="2" source="16" target="29" edge="1">
                    <mxGeometry relative="1" as="geometry"/>
                </mxCell>
                <mxCell id="33" value="" style="edgeStyle=none;html=1;" parent="2" source="27" target="20" edge="1">
                    <mxGeometry relative="1" as="geometry"/>
                </mxCell>
                <mxCell id="46" style="edgeStyle=none;html=1;" parent="2" source="39" target="44" edge="1">
                    <mxGeometry relative="1" as="geometry"/>
                </mxCell>
                <mxCell id="81" style="edgeStyle=none;html=1;" parent="2" source="44" target="79" edge="1">
                    <mxGeometry relative="1" as="geometry"/>
                </mxCell>
                <mxCell id="41" value="history" style="swimlane;html=1;startSize=20;horizontal=0;" parent="2" vertex="1">
                    <mxGeometry x="20" y="480" width="1070" height="120" as="geometry"/>
                </mxCell>
                <mxCell id="42" value="kosdaq&lt;br&gt;insert" style="rounded=0;whiteSpace=wrap;html=1;fontFamily=Helvetica;fontSize=12;align=center;" parent="41" vertex="1">
                    <mxGeometry x="580" y="30" width="80" height="60" as="geometry"/>
                </mxCell>
                <mxCell id="43" value="seoul&lt;br&gt;insert" style="rounded=0;whiteSpace=wrap;html=1;fontFamily=Helvetica;fontSize=12;align=center;" parent="41" vertex="1">
                    <mxGeometry x="240" y="30" width="80" height="60" as="geometry"/>
                </mxCell>
                <mxCell id="125" value="nasdaq&lt;br&gt;insert" style="rounded=0;whiteSpace=wrap;html=1;fontFamily=Helvetica;fontSize=12;align=center;" parent="41" vertex="1">
                    <mxGeometry x="930" y="30" width="80" height="60" as="geometry"/>
                </mxCell>
                <mxCell id="164" style="edgeStyle=none;html=1;" parent="41" source="161" target="43" edge="1">
                    <mxGeometry relative="1" as="geometry"/>
                </mxCell>
                <mxCell id="161" value="정각" style="rhombus;whiteSpace=wrap;html=1;" parent="41" vertex="1">
                    <mxGeometry x="150" y="35" width="50" height="50" as="geometry"/>
                </mxCell>
                <mxCell id="167" style="edgeStyle=none;html=1;" parent="41" source="165" target="42" edge="1">
                    <mxGeometry relative="1" as="geometry"/>
                </mxCell>
                <mxCell id="165" value="정각" style="rhombus;whiteSpace=wrap;html=1;" parent="41" vertex="1">
                    <mxGeometry x="490" y="35" width="50" height="50" as="geometry"/>
                </mxCell>
                <mxCell id="170" style="edgeStyle=none;html=1;" parent="41" source="168" target="125" edge="1">
                    <mxGeometry relative="1" as="geometry"/>
                </mxCell>
                <mxCell id="168" value="정각" style="rhombus;whiteSpace=wrap;html=1;" parent="41" vertex="1">
                    <mxGeometry x="840" y="35" width="50" height="50" as="geometry"/>
                </mxCell>
                <mxCell id="87" value="one hour 전" style="swimlane;html=1;startSize=20;horizontal=0;" parent="2" vertex="1">
                    <mxGeometry x="20" y="600" width="1070" height="120" as="geometry"/>
                </mxCell>
                <mxCell id="98" style="edgeStyle=none;html=1;" parent="87" source="88" target="96" edge="1">
                    <mxGeometry relative="1" as="geometry"/>
                </mxCell>
                <mxCell id="88" value="get&lt;br&gt;kosdaq&lt;br&gt;one hour 전" style="rounded=0;whiteSpace=wrap;html=1;fontFamily=Helvetica;fontSize=12;align=center;" parent="87" vertex="1">
                    <mxGeometry x="460" y="30" width="80" height="60" as="geometry"/>
                </mxCell>
                <mxCell id="95" style="edgeStyle=none;html=1;" parent="87" source="89" target="93" edge="1">
                    <mxGeometry relative="1" as="geometry"/>
                </mxCell>
                <mxCell id="89" value="get&lt;br&gt;seoul&lt;br&gt;one hour 전" style="rounded=0;whiteSpace=wrap;html=1;fontFamily=Helvetica;fontSize=12;align=center;" parent="87" vertex="1">
                    <mxGeometry x="120" y="30" width="80" height="60" as="geometry"/>
                </mxCell>
                <mxCell id="93" value="비교하여&lt;br&gt;update" style="rounded=0;whiteSpace=wrap;html=1;fontFamily=Helvetica;fontSize=12;align=center;" parent="87" vertex="1">
                    <mxGeometry x="240" y="30" width="80" height="60" as="geometry"/>
                </mxCell>
                <mxCell id="96" value="비교하여&lt;br&gt;update" style="rounded=0;whiteSpace=wrap;html=1;fontFamily=Helvetica;fontSize=12;align=center;" parent="87" vertex="1">
                    <mxGeometry x="580" y="30" width="80" height="60" as="geometry"/>
                </mxCell>
                <mxCell id="135" style="edgeStyle=none;html=1;" parent="87" source="128" target="131" edge="1">
                    <mxGeometry relative="1" as="geometry"/>
                </mxCell>
                <mxCell id="128" value="get&lt;br&gt;nasdaq&lt;br&gt;one hour 전" style="rounded=0;whiteSpace=wrap;html=1;fontFamily=Helvetica;fontSize=12;align=center;" parent="87" vertex="1">
                    <mxGeometry x="810" y="30" width="80" height="60" as="geometry"/>
                </mxCell>
                <mxCell id="131" value="비교하여&lt;br&gt;update" style="rounded=0;whiteSpace=wrap;html=1;fontFamily=Helvetica;fontSize=12;align=center;" parent="87" vertex="1">
                    <mxGeometry x="930" y="30" width="80" height="60" as="geometry"/>
                </mxCell>
                <mxCell id="177" style="edgeStyle=none;html=1;" parent="87" source="174" target="89" edge="1">
                    <mxGeometry relative="1" as="geometry"/>
                </mxCell>
                <mxCell id="174" value="정각" style="rhombus;whiteSpace=wrap;html=1;" parent="87" vertex="1">
                    <mxGeometry x="40" y="35" width="50" height="50" as="geometry"/>
                </mxCell>
                <mxCell id="180" style="edgeStyle=none;html=1;" parent="87" source="179" target="88" edge="1">
                    <mxGeometry relative="1" as="geometry"/>
                </mxCell>
                <mxCell id="179" value="정각" style="rhombus;whiteSpace=wrap;html=1;" parent="87" vertex="1">
                    <mxGeometry x="380" y="35" width="50" height="50" as="geometry"/>
                </mxCell>
                <mxCell id="183" style="edgeStyle=none;html=1;" parent="87" source="182" target="128" edge="1">
                    <mxGeometry relative="1" as="geometry"/>
                </mxCell>
                <mxCell id="182" value="정각" style="rhombus;whiteSpace=wrap;html=1;" parent="87" vertex="1">
                    <mxGeometry x="730" y="35" width="50" height="50" as="geometry"/>
                </mxCell>
                <mxCell id="86" style="edgeStyle=none;html=1;" parent="2" source="24" target="25" edge="1">
                    <mxGeometry relative="1" as="geometry">
                        <Array as="points">
                            <mxPoint x="90" y="60"/>
                        </Array>
                    </mxGeometry>
                </mxCell>
                <mxCell id="90" value="n day 전" style="swimlane;html=1;startSize=20;horizontal=0;" parent="2" vertex="1">
                    <mxGeometry x="20" y="720" width="1070" height="120" as="geometry"/>
                </mxCell>
                <mxCell id="109" style="edgeStyle=none;html=1;" parent="90" source="91" target="100" edge="1">
                    <mxGeometry relative="1" as="geometry"/>
                </mxCell>
                <mxCell id="91" value="get&lt;br&gt;kosdaq&lt;br&gt;n day 전" style="rounded=0;whiteSpace=wrap;html=1;fontFamily=Helvetica;fontSize=12;align=center;" parent="90" vertex="1">
                    <mxGeometry x="460" y="30" width="80" height="60" as="geometry"/>
                </mxCell>
                <mxCell id="106" style="edgeStyle=none;html=1;" parent="90" source="92" target="99" edge="1">
                    <mxGeometry relative="1" as="geometry"/>
                </mxCell>
                <mxCell id="92" value="get&lt;br&gt;seoul&lt;br&gt;n day 전" style="rounded=0;whiteSpace=wrap;html=1;fontFamily=Helvetica;fontSize=12;align=center;" parent="90" vertex="1">
                    <mxGeometry x="120" y="30" width="80" height="60" as="geometry"/>
                </mxCell>
                <mxCell id="99" value="비교하여&lt;br&gt;update" style="rounded=0;whiteSpace=wrap;html=1;fontFamily=Helvetica;fontSize=12;align=center;" parent="90" vertex="1">
                    <mxGeometry x="240" y="30" width="80" height="60" as="geometry"/>
                </mxCell>
                <mxCell id="100" value="비교하여&lt;br&gt;update" style="rounded=0;whiteSpace=wrap;html=1;fontFamily=Helvetica;fontSize=12;align=center;" parent="90" vertex="1">
                    <mxGeometry x="580" y="30" width="80" height="60" as="geometry"/>
                </mxCell>
                <mxCell id="136" style="edgeStyle=none;html=1;" parent="90" source="129" target="132" edge="1">
                    <mxGeometry relative="1" as="geometry"/>
                </mxCell>
                <mxCell id="129" value="get&lt;br&gt;nasdaq&lt;br&gt;n day 전" style="rounded=0;whiteSpace=wrap;html=1;fontFamily=Helvetica;fontSize=12;align=center;" parent="90" vertex="1">
                    <mxGeometry x="810" y="30" width="80" height="60" as="geometry"/>
                </mxCell>
                <mxCell id="132" value="비교하여&lt;br&gt;update" style="rounded=0;whiteSpace=wrap;html=1;fontFamily=Helvetica;fontSize=12;align=center;" parent="90" vertex="1">
                    <mxGeometry x="930" y="30" width="80" height="60" as="geometry"/>
                </mxCell>
                <mxCell id="140" value="1 ~ 6" style="text;html=1;strokeColor=none;fillColor=none;align=center;verticalAlign=middle;whiteSpace=wrap;rounded=0;" parent="90" vertex="1">
                    <mxGeometry x="840" y="90" width="60" height="30" as="geometry"/>
                </mxCell>
                <mxCell id="141" value="1 ~ 6" style="text;html=1;strokeColor=none;fillColor=none;align=center;verticalAlign=middle;whiteSpace=wrap;rounded=0;" parent="90" vertex="1">
                    <mxGeometry x="490" y="90" width="60" height="30" as="geometry"/>
                </mxCell>
                <mxCell id="142" value="1 ~ 6" style="text;html=1;strokeColor=none;fillColor=none;align=center;verticalAlign=middle;whiteSpace=wrap;rounded=0;" parent="90" vertex="1">
                    <mxGeometry x="150" y="90" width="60" height="30" as="geometry"/>
                </mxCell>
                <mxCell id="116" style="edgeStyle=none;html=1;" parent="2" source="114" target="115" edge="1">
                    <mxGeometry relative="1" as="geometry"/>
                </mxCell>
                <mxCell id="118" style="edgeStyle=none;html=1;" parent="2" source="115" target="117" edge="1">
                    <mxGeometry relative="1" as="geometry"/>
                </mxCell>
                <mxCell id="122" style="edgeStyle=none;html=1;" parent="2" source="120" target="119" edge="1">
                    <mxGeometry relative="1" as="geometry"/>
                </mxCell>
                <mxCell id="124" style="edgeStyle=none;html=1;" parent="2" source="119" target="123" edge="1">
                    <mxGeometry relative="1" as="geometry"/>
                </mxCell>
                <mxCell id="126" style="edgeStyle=none;html=1;" parent="2" source="119" target="125" edge="1">
                    <mxGeometry relative="1" as="geometry">
                        <Array as="points">
                            <mxPoint x="1060" y="300"/>
                            <mxPoint x="1060" y="540"/>
                        </Array>
                    </mxGeometry>
                </mxCell>
                <mxCell id="138" style="edgeStyle=none;html=1;" parent="2" source="131" target="132" edge="1">
                    <mxGeometry relative="1" as="geometry"/>
                </mxCell>
                <mxCell id="139" style="edgeStyle=none;html=1;" parent="2" source="132" target="133" edge="1">
                    <mxGeometry relative="1" as="geometry"/>
                </mxCell>
                <mxCell id="169" style="edgeStyle=none;html=1;" parent="2" source="119" target="168" edge="1">
                    <mxGeometry relative="1" as="geometry"/>
                </mxCell>
                <mxCell id="184" style="edgeStyle=none;html=1;" parent="2" source="117" target="182" edge="1">
                    <mxGeometry relative="1" as="geometry"/>
                </mxCell>
                <mxCell id="101" value="n month 전" style="swimlane;html=1;startSize=20;horizontal=0;" parent="2" vertex="1">
                    <mxGeometry x="20" y="840" width="1070" height="120" as="geometry"/>
                </mxCell>
                <mxCell id="108" style="edgeStyle=none;html=1;" parent="101" source="102" target="105" edge="1">
                    <mxGeometry relative="1" as="geometry"/>
                </mxCell>
                <mxCell id="102" value="get&lt;br&gt;kosdaq&lt;br&gt;n month 전" style="rounded=0;whiteSpace=wrap;html=1;fontFamily=Helvetica;fontSize=12;align=center;" parent="101" vertex="1">
                    <mxGeometry x="460" y="30" width="80" height="60" as="geometry"/>
                </mxCell>
                <mxCell id="107" style="edgeStyle=none;html=1;" parent="101" source="103" target="104" edge="1">
                    <mxGeometry relative="1" as="geometry"/>
                </mxCell>
                <mxCell id="103" value="get&lt;br&gt;seoul&lt;br&gt;n month 전" style="rounded=0;whiteSpace=wrap;html=1;fontFamily=Helvetica;fontSize=12;align=center;" parent="101" vertex="1">
                    <mxGeometry x="120" y="30" width="80" height="60" as="geometry"/>
                </mxCell>
                <mxCell id="104" value="비교하여&lt;br&gt;update" style="rounded=0;whiteSpace=wrap;html=1;fontFamily=Helvetica;fontSize=12;align=center;" parent="101" vertex="1">
                    <mxGeometry x="240" y="30" width="80" height="60" as="geometry"/>
                </mxCell>
                <mxCell id="105" value="비교하여&lt;br&gt;update" style="rounded=0;whiteSpace=wrap;html=1;fontFamily=Helvetica;fontSize=12;align=center;" parent="101" vertex="1">
                    <mxGeometry x="580" y="30" width="80" height="60" as="geometry"/>
                </mxCell>
                <mxCell id="137" style="edgeStyle=none;html=1;" parent="101" source="130" target="133" edge="1">
                    <mxGeometry relative="1" as="geometry"/>
                </mxCell>
                <mxCell id="130" value="get&lt;br&gt;nasdaq&lt;br&gt;n month 전" style="rounded=0;whiteSpace=wrap;html=1;fontFamily=Helvetica;fontSize=12;align=center;" parent="101" vertex="1">
                    <mxGeometry x="810" y="30" width="80" height="60" as="geometry"/>
                </mxCell>
                <mxCell id="133" value="비교하여&lt;br&gt;update" style="rounded=0;whiteSpace=wrap;html=1;fontFamily=Helvetica;fontSize=12;align=center;" parent="101" vertex="1">
                    <mxGeometry x="930" y="30" width="80" height="60" as="geometry"/>
                </mxCell>
                <mxCell id="143" value="1 ~ 11" style="text;html=1;strokeColor=none;fillColor=none;align=center;verticalAlign=middle;whiteSpace=wrap;rounded=0;" parent="101" vertex="1">
                    <mxGeometry x="840" y="90" width="60" height="30" as="geometry"/>
                </mxCell>
                <mxCell id="144" value="1 ~ 11" style="text;html=1;strokeColor=none;fillColor=none;align=center;verticalAlign=middle;whiteSpace=wrap;rounded=0;" parent="101" vertex="1">
                    <mxGeometry x="490" y="90" width="60" height="30" as="geometry"/>
                </mxCell>
                <mxCell id="145" value="1 ~ 11" style="text;html=1;strokeColor=none;fillColor=none;align=center;verticalAlign=middle;whiteSpace=wrap;rounded=0;" parent="101" vertex="1">
                    <mxGeometry x="150" y="90" width="60" height="30" as="geometry"/>
                </mxCell>
                <mxCell id="147" value="n week 전" style="swimlane;html=1;startSize=20;horizontal=0;" parent="2" vertex="1">
                    <mxGeometry x="20" y="960" width="1070" height="120" as="geometry"/>
                </mxCell>
                <mxCell id="148" style="edgeStyle=none;html=1;" parent="147" source="149" target="153" edge="1">
                    <mxGeometry relative="1" as="geometry"/>
                </mxCell>
                <mxCell id="149" value="get&lt;br&gt;kosdaq&lt;br&gt;n month 전" style="rounded=0;whiteSpace=wrap;html=1;fontFamily=Helvetica;fontSize=12;align=center;" parent="147" vertex="1">
                    <mxGeometry x="460" y="30" width="80" height="60" as="geometry"/>
                </mxCell>
                <mxCell id="150" style="edgeStyle=none;html=1;" parent="147" source="151" target="152" edge="1">
                    <mxGeometry relative="1" as="geometry"/>
                </mxCell>
                <mxCell id="151" value="get&lt;br&gt;seoul&lt;br&gt;n month 전" style="rounded=0;whiteSpace=wrap;html=1;fontFamily=Helvetica;fontSize=12;align=center;" parent="147" vertex="1">
                    <mxGeometry x="120" y="30" width="80" height="60" as="geometry"/>
                </mxCell>
                <mxCell id="152" value="비교하여&lt;br&gt;update" style="rounded=0;whiteSpace=wrap;html=1;fontFamily=Helvetica;fontSize=12;align=center;" parent="147" vertex="1">
                    <mxGeometry x="240" y="30" width="80" height="60" as="geometry"/>
                </mxCell>
                <mxCell id="153" value="비교하여&lt;br&gt;update" style="rounded=0;whiteSpace=wrap;html=1;fontFamily=Helvetica;fontSize=12;align=center;" parent="147" vertex="1">
                    <mxGeometry x="580" y="30" width="80" height="60" as="geometry"/>
                </mxCell>
                <mxCell id="154" style="edgeStyle=none;html=1;" parent="147" source="155" target="156" edge="1">
                    <mxGeometry relative="1" as="geometry"/>
                </mxCell>
                <mxCell id="155" value="get&lt;br&gt;nasdaq&lt;br&gt;n month 전" style="rounded=0;whiteSpace=wrap;html=1;fontFamily=Helvetica;fontSize=12;align=center;" parent="147" vertex="1">
                    <mxGeometry x="810" y="30" width="80" height="60" as="geometry"/>
                </mxCell>
                <mxCell id="156" value="비교하여&lt;br&gt;update" style="rounded=0;whiteSpace=wrap;html=1;fontFamily=Helvetica;fontSize=12;align=center;" parent="147" vertex="1">
                    <mxGeometry x="930" y="30" width="80" height="60" as="geometry"/>
                </mxCell>
                <mxCell id="157" value="1 ~ 4" style="text;html=1;strokeColor=none;fillColor=none;align=center;verticalAlign=middle;whiteSpace=wrap;rounded=0;" parent="147" vertex="1">
                    <mxGeometry x="840" y="90" width="60" height="30" as="geometry"/>
                </mxCell>
                <mxCell id="158" value="1 ~ 4" style="text;html=1;strokeColor=none;fillColor=none;align=center;verticalAlign=middle;whiteSpace=wrap;rounded=0;" parent="147" vertex="1">
                    <mxGeometry x="490" y="90" width="60" height="30" as="geometry"/>
                </mxCell>
                <mxCell id="159" value="1 ~ 4" style="text;html=1;strokeColor=none;fillColor=none;align=center;verticalAlign=middle;whiteSpace=wrap;rounded=0;" parent="147" vertex="1">
                    <mxGeometry x="150" y="90" width="60" height="30" as="geometry"/>
                </mxCell>
                <mxCell id="112" style="edgeStyle=none;html=1;" parent="2" source="93" target="99" edge="1">
                    <mxGeometry relative="1" as="geometry"/>
                </mxCell>
                <mxCell id="113" style="edgeStyle=none;html=1;" parent="2" source="99" target="104" edge="1">
                    <mxGeometry relative="1" as="geometry"/>
                </mxCell>
                <mxCell id="163" style="edgeStyle=none;html=1;" parent="2" source="44" target="161" edge="1">
                    <mxGeometry relative="1" as="geometry"/>
                </mxCell>
                <mxCell id="175" style="edgeStyle=none;html=1;" parent="2" source="29" target="174" edge="1">
                    <mxGeometry relative="1" as="geometry"/>
                </mxCell>
                <mxCell id="181" style="edgeStyle=none;html=1;" parent="2" source="20" target="179" edge="1">
                    <mxGeometry relative="1" as="geometry"/>
                </mxCell>
            </root>
        </mxGraphModel>
    </diagram>
</mxfile>